<svg width="160" height="160" viewBox="0 0 160 160" fill="none" xmlns="http://www.w3.org/2000/svg">
<mask id="mask0_2244_620" style="mask-type:alpha" maskUnits="userSpaceOnUse" x="0" y="0" width="160" height="160">
<path fill-rule="evenodd" clip-rule="evenodd" d="M80 0C35.8172 0 0 35.8172 0 80C0 124.183 35.8172 160 80 160C124.183 160 160 124.183 160 80C160 35.8172 124.183 0 80 0ZM15.8559 80C15.8559 44.5742 44.5742 15.8559 80 15.8559C115.426 15.8559 144.144 44.5742 144.144 80C144.144 115.426 115.426 144.144 80 144.144C44.5742 144.144 15.8559 115.426 15.8559 80Z" fill="#111111"/>
<path d="M94.6296 40C93.5251 40 92.6296 40.8954 92.6296 42V68.6286C92.6296 69.7331 91.7342 70.6286 90.6296 70.6286H69.3704C68.2658 70.6286 67.3704 69.7331 67.3704 68.6286V42C67.3704 40.8954 66.4749 40 65.3704 40H51C49.8954 40 49 40.8954 49 42V118C49 119.105 49.8954 120 51 120H65.3704C66.4749 120 67.3704 119.105 67.3704 118V90.2286C67.3704 89.124 68.2658 88.2286 69.3704 88.2286H90.6296C91.7342 88.2286 92.6296 89.124 92.6296 90.2286V118C92.6296 119.105 93.5251 120 94.6296 120H109C110.105 120 111 119.105 111 118V42C111 40.8954 110.105 40 109 40H94.6296Z" fill="black"/>
</mask>
<g mask="url(#mask0_2244_620)">
<rect x="-137.65" y="-82.2676" width="454.301" height="288.533" fill="#FAFAFA"/>
<path d="M362.23 89.4096C342.347 200.426 269.011 280.255 198.429 267.712C127.848 255.169 86.7482 155.005 106.631 43.9883C126.514 -67.0282 199.849 -146.857 270.431 -134.314C341.013 -121.771 382.112 -21.6069 362.23 89.4096Z" fill="#5F5DF9"/>
<path d="M114.443 83.2585C133.895 129.999 101.533 185.87 42.1601 208.05C-17.2127 230.231 -81.1131 210.321 -100.565 163.58C-120.018 116.84 -87.6557 60.9684 -28.2828 38.7882C31.09 16.608 94.9904 36.518 114.443 83.2585Z" fill="#F3D37E"/>
<path d="M75.976 101.517C0.00397654 106.011 -64.1839 73.4992 -67.3917 28.9003C-70.5995 -15.6987 -11.6125 -55.4963 64.3595 -59.9901C140.331 -64.484 204.519 -31.9724 207.727 12.6266C210.935 57.2255 151.948 97.0231 75.976 101.517Z" fill="#D478D8"/>
<path d="M66.3363 41.4962C50.1363 100.409 -8.48494 137.094 -64.598 123.435C-120.711 109.776 -153.067 50.9452 -136.867 -7.9672C-120.667 -66.8796 -62.0459 -103.565 -5.93279 -89.9059C50.1803 -76.2469 82.5363 -17.4162 66.3363 41.4962Z" fill="#F04D42"/>
</g>
</svg>
